<?xml version="1.0" standalone="no"?>
<!DOCTYPE svg PUBLIC "-//W3C//DTD SVG 20010904//EN"
 "http://www.w3.org/TR/2001/REC-SVG-20010904/DTD/svg10.dtd">
<svg version="1.0" xmlns="http://www.w3.org/2000/svg"
 width="249.000000pt" height="310.000000pt" viewBox="0 0 249.000000 310.000000"
 preserveAspectRatio="xMidYMid meet">

<g transform="translate(0.000000,310.000000) scale(0.100000,-0.100000)"
fill="#000000" stroke="none">
<path d="M2048 3007 c-15 -12 -39 -49 -53 -81 -22 -49 -26 -72 -24 -135 2 -74
1 -78 -42 -146 -61 -98 -70 -105 -143 -105 -143 0 -182 -37 -245 -235 -23 -71
-46 -139 -52 -150 -5 -11 -29 -78 -53 -150 -25 -71 -67 -195 -95 -275 -54
-153 -134 -383 -153 -437 -6 -18 -14 -33 -18 -33 -3 0 -22 48 -41 108 -51 157
-309 924 -316 942 -4 8 -23 62 -42 120 l-36 105 -343 3 c-188 1 -342 -1 -342
-4 0 -13 62 -209 70 -219 4 -5 26 -64 49 -130 22 -66 66 -190 96 -275 31 -85
76 -213 100 -285 25 -71 49 -139 55 -150 5 -11 25 -67 45 -125 19 -58 40 -114
45 -125 5 -11 30 -81 56 -155 26 -74 69 -198 96 -275 27 -77 69 -198 94 -270
24 -72 48 -139 54 -150 5 -11 26 -69 45 -130 20 -60 42 -123 49 -140 8 -16 17
-40 21 -53 6 -22 10 -23 113 -20 l106 3 29 75 c15 41 48 133 73 205 25 72 51
144 59 160 7 17 49 140 94 275 45 135 86 254 91 265 5 11 50 144 100 295 49
151 94 282 99 290 4 8 15 40 24 70 27 91 40 100 156 100 l99 0 21 -47 c32 -74
65 -103 117 -103 124 0 175 268 73 378 -67 72 -142 50 -189 -55 l-19 -43 -85
0 c-68 0 -86 3 -86 14 0 33 72 229 91 249 12 12 28 32 36 44 17 26 91 43 170
40 47 -2 54 -5 62 -28 5 -15 25 -43 45 -63 89 -89 193 -11 204 152 5 84 -14
149 -59 196 -23 24 -35 28 -75 28 -41 -1 -52 -6 -73 -33 -15 -17 -33 -50 -42
-73 l-17 -41 -83 -6 c-189 -12 -228 -65 -368 -489 -82 -246 -190 -563 -209
-610 -5 -14 -24 -72 -42 -130 -17 -58 -38 -118 -45 -135 -7 -16 -25 -70 -41
-120 -15 -49 -30 -82 -32 -75 -2 8 -10 29 -18 45 -7 17 -29 77 -49 134 l-36
105 37 115 c21 64 40 121 44 126 4 6 24 64 46 130 21 66 41 122 44 125 3 3 26
68 51 145 99 298 209 609 223 629 17 27 77 46 142 46 73 0 110 25 173 116 l54
79 52 -3 c46 -3 56 0 86 26 71 62 88 196 40 307 -34 79 -109 107 -163 62z m98
-142 c17 -42 18 -66 2 -100 -9 -19 -19 -25 -45 -25 -27 0 -35 5 -43 26 -24 62
1 134 47 134 18 0 28 -9 39 -35z m157 -468 c37 -26 30 -136 -10 -151 -38 -15
-80 49 -69 106 11 55 42 73 79 45z m-169 -503 c21 -20 21 -93 0 -122 -34 -49
-84 -14 -84 59 0 51 18 79 50 79 10 0 26 -7 34 -16z"/>
<path d="M1974 1607 c-8 -22 -84 -238 -136 -387 -21 -63 -45 -128 -53 -145
-13 -29 -43 -113 -141 -395 -24 -69 -48 -134 -54 -145 -5 -11 -26 -69 -46
-130 -20 -60 -42 -123 -49 -140 -16 -36 -75 -215 -75 -227 0 -5 21 -8 47 -6
l46 3 34 105 c18 58 38 114 43 125 5 11 28 74 50 140 22 66 45 129 50 140 11
22 80 217 141 395 21 63 43 124 49 135 5 11 28 74 50 140 23 66 47 134 54 150
7 17 26 65 41 109 l27 78 -35 36 c-31 30 -37 33 -43 19z"/>
<path d="M2257 536 c-9 -22 18 -40 33 -22 6 9 9 20 5 26 -9 15 -32 12 -38 -4z"/>
</g>
</svg>
