<?xml version="1.0" standalone="no"?>
<!DOCTYPE svg PUBLIC "-//W3C//DTD SVG 20010904//EN"
 "http://www.w3.org/TR/2001/REC-SVG-20010904/DTD/svg10.dtd">
<svg version="1.0" xmlns="http://www.w3.org/2000/svg"
 width="130.000000pt" height="56.000000pt" viewBox="0 0 130.000000 56.000000"
 preserveAspectRatio="xMidYMid meet">

<g transform="translate(0.000000,56.000000) scale(0.100000,-0.100000)"
fill="#000000" stroke="none">
<path d="M361 521 c-6 -10 -8 -21 -5 -24 11 -11 -20 -45 -45 -50 -23 -5 -31
-19 -65 -116 -21 -61 -41 -111 -45 -111 -4 0 -24 52 -44 115 l-38 115 -60 0
c-55 0 -59 -2 -59 -22 1 -13 33 -113 73 -223 71 -196 73 -200 102 -203 30 -3
30 -2 73 120 64 184 61 178 88 178 13 0 24 -4 24 -10 0 -16 37 -11 44 6 8 20
-11 54 -29 54 -8 0 -15 -4 -15 -10 0 -5 -9 -10 -20 -10 -16 0 -18 4 -11 22 13
35 36 44 66 28 23 -12 28 -12 35 0 14 22 12 46 -6 61 -14 11 -18 11 -29 -4 -7
-9 -19 -17 -28 -17 -27 0 -51 -43 -92 -168 -22 -67 -43 -122 -46 -122 -22 0
-12 64 25 171 37 106 44 119 68 124 14 4 29 13 32 21 3 8 12 14 20 14 23 0 39
36 26 60 -13 25 -26 25 -39 1z m29 -21 c0 -5 -4 -10 -10 -10 -5 0 -10 5 -10
10 0 6 5 10 10 10 6 0 10 -4 10 -10z m30 -96 c0 -8 -4 -12 -10 -9 -5 3 -10 10
-10 16 0 5 5 9 10 9 6 0 10 -7 10 -16z m-30 -95 c0 -5 -4 -9 -10 -9 -5 0 -10
7 -10 16 0 8 5 12 10 9 6 -3 10 -10 10 -16z"/>
<path d="M715 420 c-4 -6 -3 -16 3 -22 6 -6 12 -6 17 2 4 6 3 16 -3 22 -6 6
-12 6 -17 -2z"/>
<path d="M835 420 c-8 -13 -55 -206 -55 -226 0 -25 29 -15 36 14 3 15 12 49
18 77 l12 49 20 -74 c25 -98 41 -98 75 0 22 62 28 71 32 50 3 -14 11 -49 17
-78 12 -53 24 -70 35 -52 5 8 -12 112 -34 205 -7 29 -41 49 -41 23 0 -7 -10
-46 -22 -86 -24 -83 -31 -80 -49 20 -12 67 -30 100 -44 78z"/>
<path d="M519 381 c-16 -16 -29 -33 -29 -38 0 -23 29 -44 74 -52 73 -13 84
-50 22 -71 -35 -11 -60 -6 -88 17 -9 9 -18 10 -22 5 -10 -16 3 -39 30 -51 73
-33 166 20 149 86 -6 25 -56 53 -94 53 -29 0 -37 21 -15 37 12 9 33 13 56 10
20 -3 39 -2 42 1 14 13 -20 32 -56 32 -30 0 -46 -7 -69 -29z"/>
<path d="M704 336 c-10 -26 1 -139 14 -144 9 -3 12 17 12 77 0 49 -4 81 -10
81 -6 0 -13 -6 -16 -14z"/>
<path d="M1091 333 c-46 -38 -45 -117 2 -143 22 -12 30 -13 47 -2 17 11 20 10
20 -7 0 -28 -37 -51 -71 -44 -22 4 -29 2 -29 -10 0 -34 71 -37 104 -4 19 19
24 38 30 111 4 61 3 93 -5 102 -16 20 -73 17 -98 -3z m79 -42 c0 -38 -39 -85
-63 -76 -22 9 -23 67 -1 89 8 9 26 16 40 16 20 0 24 -5 24 -29z"/>
<path d="M310 147 c-24 -67 -45 -128 -48 -135 -2 -6 1 -12 6 -12 6 0 15 15 20
33 6 17 26 76 45 129 20 54 32 100 28 103 -5 2 -28 -50 -51 -118z"/>
</g>
</svg>
