<?xml version="1.0" standalone="no"?>
<!DOCTYPE svg PUBLIC "-//W3C//DTD SVG 20010904//EN"
 "http://www.w3.org/TR/2001/REC-SVG-20010904/DTD/svg10.dtd">
<svg version="1.0" xmlns="http://www.w3.org/2000/svg"
 width="202.000000pt" height="86.000000pt" viewBox="0 0 202.000000 86.000000"
 preserveAspectRatio="xMidYMid meet">

<g transform="translate(0.000000,86.000000) scale(0.100000,-0.100000)"
fill="#000000" stroke="none">
<path d="M570 831 c-5 -11 -10 -33 -10 -49 0 -41 -35 -82 -70 -82 -15 0 -32
-6 -37 -12 -6 -7 -29 -69 -53 -138 -23 -69 -52 -149 -63 -179 l-20 -54 -13 39
c-8 21 -37 108 -65 192 l-51 152 -94 0 -94 0 0 -28 c0 -27 19 -85 135 -407 25
-72 56 -160 68 -197 l22 -68 51 0 c50 0 53 2 64 33 6 17 36 104 66 192 90 260
82 245 118 245 21 0 36 -7 44 -21 18 -28 54 -21 66 13 21 59 -36 117 -66 68
-7 -11 -23 -20 -36 -20 -21 0 -23 3 -17 28 11 47 33 72 64 72 16 0 34 -7 41
-15 20 -24 53 -14 64 18 22 62 -39 121 -66 63 -9 -20 -19 -26 -44 -26 -43 0
-61 -27 -104 -155 -18 -55 -50 -149 -71 -210 l-37 -109 -15 49 -14 50 58 165
c72 208 77 220 86 221 5 1 19 3 32 4 13 1 33 14 44 29 10 14 27 26 37 26 22 0
50 36 50 65 0 26 -27 65 -45 65 -8 0 -19 -9 -25 -19z m40 -46 c0 -26 -14 -33
-25 -15 -9 14 1 40 15 40 5 0 10 -11 10 -25z m54 -134 c7 -11 -3 -41 -14 -41
-11 0 -21 30 -14 41 3 5 9 9 14 9 5 0 11 -4 14 -9z m-54 -161 c0 -11 -7 -20
-15 -20 -8 0 -15 9 -15 20 0 11 7 20 15 20 8 0 15 -9 15 -20z"/>
<path d="M1402 478 c-6 -7 -13 -27 -17 -43 -15 -66 -47 -165 -55 -170 -8 -5
-24 50 -35 125 -9 56 -29 90 -55 90 -26 0 -32 -16 -70 -172 -37 -150 -37 -193
0 -193 22 0 27 6 38 55 7 30 18 73 24 95 l11 40 23 -84 c26 -94 32 -104 65
-99 18 2 28 15 41 53 10 28 26 70 35 95 l16 45 18 -82 c22 -103 34 -125 62
-121 28 4 28 34 -3 183 -35 169 -42 190 -66 193 -11 2 -26 -3 -32 -10z"/>
<path d="M790 462 c-54 -25 -90 -73 -90 -119 0 -43 31 -63 114 -73 75 -9 86
-14 86 -40 0 -12 -14 -23 -40 -34 -61 -24 -95 -21 -130 14 -32 31 -55 31 -65
-1 -9 -26 19 -67 53 -81 38 -15 134 -12 175 6 55 23 77 50 77 97 0 61 -38 95
-116 104 -76 8 -84 11 -84 29 0 27 58 49 110 42 36 -5 50 -3 60 9 11 13 11 19
-3 32 -18 18 -120 28 -147 15z"/>
<path d="M1034 455 c-9 -23 3 -45 24 -45 25 0 46 25 38 45 -7 19 -55 20 -62 0z"/>
<path d="M550 394 c-35 -95 -62 -169 -90 -249 -17 -50 -35 -100 -41 -113 -12
-30 -12 -32 6 -32 8 0 15 2 15 4 0 2 32 92 71 201 48 136 67 201 60 208 -7 7
-14 1 -21 -19z"/>
<path d="M1650 368 c-65 -18 -100 -68 -100 -143 0 -67 42 -108 110 -107 3 0
15 3 28 7 29 8 30 -17 1 -46 -16 -16 -30 -19 -77 -17 -48 3 -57 0 -60 -15 -7
-34 17 -47 85 -47 58 0 68 3 93 28 30 30 31 37 49 188 15 123 15 121 -18 138
-40 21 -70 25 -111 14z m67 -94 c-5 -45 -37 -94 -63 -94 -27 0 -46 32 -40 69
7 43 37 71 78 71 30 0 31 0 25 -46z"/>
<path d="M1027 363 c-4 -3 -7 -55 -7 -113 0 -83 3 -110 15 -120 33 -27 42 -6
47 107 3 59 3 114 1 121 -5 13 -45 17 -56 5z"/>
</g>
</svg>
